<svg xmlns="http://www.w3.org/2000/svg" width="61" height="60" viewBox="0 0 61 60" fill="none">
  <path d="M10.4443 22.5003C9.73601 22.5003 9.14184 22.2603 8.66184 21.7803C8.18184 21.3003 7.94268 20.7069 7.94434 20.0003V15.0003C7.94434 14.2919 8.18434 13.6978 8.66434 13.2178C9.14434 12.7378 9.73768 12.4986 10.4443 12.5003H15.4443C16.1527 12.5003 16.7468 12.7403 17.2268 13.2203C17.7068 13.7003 17.946 14.2936 17.9443 15.0003V20.0003C17.9443 20.7086 17.7043 21.3028 17.2243 21.7828C16.7443 22.2628 16.151 22.5019 15.4443 22.5003H10.4443ZM22.9443 22.5003C22.236 22.5003 21.6418 22.2603 21.1618 21.7803C20.6818 21.3003 20.4427 20.7069 20.4443 20.0003V15.0003C20.4443 14.2919 20.6843 13.6978 21.1643 13.2178C21.6443 12.7378 22.2377 12.4986 22.9443 12.5003H50.4443C51.1527 12.5003 51.7468 12.7403 52.2268 13.2203C52.7068 13.7003 52.946 14.2936 52.9443 15.0003V20.0003C52.9443 20.7086 52.7043 21.3028 52.2243 21.7828C51.7443 22.2628 51.151 22.5019 50.4443 22.5003H22.9443ZM22.9443 35.0003C22.236 35.0003 21.6418 34.7603 21.1618 34.2803C20.6818 33.8003 20.4427 33.2069 20.4443 32.5003V27.5003C20.4443 26.7919 20.6843 26.1978 21.1643 25.7178C21.6443 25.2378 22.2377 24.9986 22.9443 25.0003H50.4443C51.1527 25.0003 51.7468 25.2403 52.2268 25.7203C52.7068 26.2003 52.946 26.7936 52.9443 27.5003V32.5003C52.9443 33.2086 52.7043 33.8028 52.2243 34.2828C51.7443 34.7628 51.151 35.0019 50.4443 35.0003H22.9443ZM10.4443 35.0003C9.73601 35.0003 9.14184 34.7603 8.66184 34.2803C8.18184 33.8003 7.94268 33.2069 7.94434 32.5003V27.5003C7.94434 26.7919 8.18434 26.1978 8.66434 25.7178C9.14434 25.2378 9.73768 24.9986 10.4443 25.0003H15.4443C16.1527 25.0003 16.7468 25.2403 17.2268 25.7203C17.7068 26.2003 17.946 26.7936 17.9443 27.5003V32.5003C17.9443 33.2086 17.7043 33.8028 17.2243 34.2828C16.7443 34.7628 16.151 35.0019 15.4443 35.0003H10.4443ZM22.9443 47.5003C22.236 47.5003 21.6418 47.2603 21.1618 46.7803C20.6818 46.3003 20.4427 45.7069 20.4443 45.0003V40.0003C20.4443 39.2919 20.6843 38.6978 21.1643 38.2178C21.6443 37.7378 22.2377 37.4986 22.9443 37.5003H50.4443C51.1527 37.5003 51.7468 37.7403 52.2268 38.2203C52.7068 38.7003 52.946 39.2936 52.9443 40.0003V45.0003C52.9443 45.7086 52.7043 46.3028 52.2243 46.7828C51.7443 47.2628 51.151 47.5019 50.4443 47.5003H22.9443ZM10.4443 47.5003C9.73601 47.5003 9.14184 47.2603 8.66184 46.7803C8.18184 46.3003 7.94268 45.7069 7.94434 45.0003V40.0003C7.94434 39.2919 8.18434 38.6978 8.66434 38.2178C9.14434 37.7378 9.73768 37.4986 10.4443 37.5003H15.4443C16.1527 37.5003 16.7468 37.7403 17.2268 38.2203C17.7068 38.7003 17.946 39.2936 17.9443 40.0003V45.0003C17.9443 45.7086 17.7043 46.3028 17.2243 46.7828C16.7443 47.2628 16.151 47.5019 15.4443 47.5003H10.4443Z" fill="black"/>
</svg>